HIERARCHY
ROOT Hips
{
	OFFSET 0.00000 0.00000 0.00000
	CHANNELS 6 Xposition Yposition Zposition Zrotation Yrotation Xrotation 
	JOINT LHipJoint
	{
		OFFSET 0 0 0
		CHANNELS 3 Zrotation Yrotation Xrotation
		JOINT LeftUpLeg
		{
			OFFSET 3.13874 -1.57224 1.49786
			CHANNELS 3 Zrotation Yrotation Xrotation
			JOINT LeftLeg
			{
				OFFSET 2.10955 -5.79594 0.00000
				CHANNELS 3 Zrotation Yrotation Xrotation
				JOINT LeftFoot
				{
					OFFSET 2.41843 -6.64458 0.00000
					CHANNELS 3 Zrotation Yrotation Xrotation
					JOINT LeftToeBase
					{
						OFFSET 0.04713 -0.12948 1.66229
						CHANNELS 3 Zrotation Yrotation Xrotation
						End Site
						{
							OFFSET 0.00000 -0.00000 0.85167
						}
					}
				}
			}
		}
	}
	JOINT RHipJoint
	{
		OFFSET 0 0 0
		CHANNELS 3 Zrotation Yrotation Xrotation
		JOINT RightUpLeg
		{
			OFFSET -3.13988 -1.57224 1.49786
			CHANNELS 3 Zrotation Yrotation Xrotation
			JOINT RightLeg
			{
				OFFSET -2.15006 -5.90725 0.00000
				CHANNELS 3 Zrotation Yrotation Xrotation
				JOINT RightFoot
				{
					OFFSET -2.34496 -6.44273 0.00000
					CHANNELS 3 Zrotation Yrotation Xrotation
					JOINT RightToeBase
					{
						OFFSET -0.08699 -0.23900 1.55223
						CHANNELS 3 Zrotation Yrotation Xrotation
						End Site
						{
							OFFSET -0.00000 -0.00000 0.80281
						}
					}
				}
			}
		}
	}
	JOINT LowerBack
	{
		OFFSET 0 0 0
		CHANNELS 3 Zrotation Yrotation Xrotation
		JOINT Spine
		{
			OFFSET 0.01292 1.96517 -0.16495
			CHANNELS 3 Zrotation Yrotation Xrotation
			JOINT Spine1
			{
				OFFSET 0.02122 1.88666 0.19706
				CHANNELS 3 Zrotation Yrotation Xrotation
				JOINT Neck
				{
					OFFSET 0 0 0
					CHANNELS 3 Zrotation Yrotation Xrotation
					JOINT Neck1
					{
						OFFSET -0.01683 1.81591 0.07903
						CHANNELS 3 Zrotation Yrotation Xrotation
						JOINT Head
						{
							OFFSET 0.00815 1.74013 -0.47700
							CHANNELS 3 Zrotation Yrotation Xrotation
							End Site
							{
								OFFSET -0.00204 1.83225 -0.16933
							}
						}
					}
				}
				JOINT LeftShoulder
				{
					OFFSET 0 0 0
					CHANNELS 3 Zrotation Yrotation Xrotation
					JOINT LeftArm
					{
						OFFSET 3.38482 1.41533 0.19802
						CHANNELS 3 Zrotation Yrotation Xrotation
						JOINT LeftForeArm
						{
							OFFSET 4.32712 -0.00000 0.00000
							CHANNELS 3 Zrotation Yrotation Xrotation
							JOINT LeftHand
							{
								OFFSET 3.28587 -0.00000 -0.00000
								CHANNELS 3 Zrotation Yrotation Xrotation
								JOINT LeftFingerBase
								{
									OFFSET 0 0 0
									CHANNELS 3 Zrotation Yrotation Xrotation
									JOINT LeftHandIndex1
									{
										OFFSET 0.43316 -0.00000 -0.00000
										CHANNELS 3 Zrotation Yrotation Xrotation
										End Site
										{
											OFFSET 0.34922 -0.00000 -0.00000
										}
									}
								}
								JOINT LThumb
								{
									OFFSET 0 0 0
									CHANNELS 3 Zrotation Yrotation Xrotation
									End Site
									{
										OFFSET 0.35456 -0.00000 0.35456
									}
								}
							}
						}
					}
				}
				JOINT RightShoulder
				{
					OFFSET 0 0 0
					CHANNELS 3 Zrotation Yrotation Xrotation
					JOINT RightArm
					{
						OFFSET -3.09725 1.62858 -0.14144
						CHANNELS 3 Zrotation Yrotation Xrotation
						JOINT RightForeArm
						{
							OFFSET -4.29104 -0.00000 0.00000
							CHANNELS 3 Zrotation Yrotation Xrotation
							JOINT RightHand
							{
								OFFSET -3.22720 -0.00000 -0.00000
								CHANNELS 3 Zrotation Yrotation Xrotation
								JOINT RightFingerBase
								{
									OFFSET 0 0 0
									CHANNELS 3 Zrotation Yrotation Xrotation
									JOINT RightHandIndex1
									{
										OFFSET -0.54362 -0.00000 -0.00000
										CHANNELS 3 Zrotation Yrotation Xrotation
										End Site
										{
											OFFSET -0.43828 -0.00000 -0.00000
										}
									}
								}
								JOINT RThumb
								{
									OFFSET 0 0 0
									CHANNELS 3 Zrotation Yrotation Xrotation
									End Site
									{
										OFFSET -0.44497 -0.00000 0.44497
									}
								}
							}
						}
					}
				}
			}
		}
	}
}
MOTION
Frames: 11
Frame Time: .0083333
-1.5716 11.1467 -0.4653 -68.8348 -87.7275 87.3565 0.0000 0.0000 0.0000 -31.6633 -4.8190 1.9744 11.8097 18.3090 65.3843 -1.5286 -22.0409 2.0398 11.4393 -18.1434 -64.2001 0.0000 0.0000 0.0000 11.9884 40.7442 -82.5443 -18.8708 -19.9694 86.6967 -1.3024 9.8200 -20.5340 -0.1191 2.2253 -6.1286 1.3661 0.2195 19.6740 4.4746 1.3970 -7.9248 3.8288 0.7776 -20.2796 -4.0611 1.6312 -16.5936 -17.0668 6.8924 22.4526 -4.5651 0.4800 10.6452 -0.0000 0.0000 0.0000 -64.3706 -7.2129 -15.1778 14.3154 -23.1838 -2.9511 -0.0000 0.0000 -20.2640 4.9771 37.7005 3.0485 -7.1250 0.0000 -0.0000 -36.8881 64.0384 -18.2062 -0.0000 0.0000 0.0000 42.3115 0.4643 43.0323 -18.2096 28.4247 -4.6486 0.0000 -0.0000 -55.7606 0.7638 -27.7933 -0.3561 7.1250 -0.0000 -0.0000 32.6614 -54.6022 -8.3749
-1.5918 11.0249 -0.4481 -62.3082 -87.6248 80.6089 0.0000 0.0000 0.0000 -31.7383 -4.6087 2.0723 12.0899 18.4284 66.2734 -1.5211 -22.0767 1.7168 11.4832 -18.1635 -64.3411 0.0000 0.0000 0.0000 11.8159 40.6578 -83.4262 -19.3985 -19.9913 88.2410 -1.3716 10.2716 -21.1014 -0.0093 0.6229 -1.7117 1.2324 0.1765 20.1922 4.6403 1.3481 -7.7607 4.1109 0.7908 -20.3956 -3.8549 1.7997 -17.0725 -17.4533 7.2653 22.7435 -4.7157 0.5699 10.9124 0.0000 -0.0000 0.0000 -62.8481 -5.5605 -18.8387 14.5747 -23.5503 -3.0540 -0.0000 0.0000 -20.3649 8.9330 38.2607 5.5594 -7.1250 0.0000 -0.0000 -33.5895 65.5862 -17.5783 0.0000 -0.0000 0.0000 40.7625 -1.8820 40.2492 -17.0964 26.9846 -4.1310 0.0000 -0.0000 -54.3438 -2.1189 -28.7382 1.0191 7.1250 -0.0000 -0.0000 30.6644 -55.9638 -8.8380
-1.6161 10.9127 -0.4335 -53.3240 -87.6814 71.4498 0.0000 0.0000 0.0000 -32.0362 -4.5420 2.2959 12.4146 18.5605 67.2970 -1.5260 -22.2906 1.1127 11.5580 -18.1975 -64.5809 0.0000 0.0000 0.0000 11.4337 40.4831 -84.3396 -19.9320 -19.9999 89.8013 -1.5307 10.0681 -22.2377 -0.0643 1.6359 -4.5003 0.9557 0.1677 20.6027 4.6920 1.2826 -7.6731 4.3530 0.8076 -20.5398 -3.9227 1.8486 -17.1185 -17.5692 7.3994 22.8572 -4.7368 0.5955 10.9836 0.0000 -0.0000 0.0000 -61.2322 -4.0940 -22.4022 14.7043 -23.7326 -3.1060 -0.0000 0.0000 -20.2190 12.9270 38.8342 8.1903 -7.1250 0.0000 -0.0000 -30.1270 67.2247 -16.7251 0.0000 -0.0000 0.0000 39.2641 -4.3444 37.2337 -16.1243 25.6889 -3.6997 0.0000 -0.0000 -52.8464 -4.9104 -29.7372 2.4401 7.1250 -0.0000 -0.0000 28.7521 -57.3976 -9.2411
-1.6424 10.8072 -0.4193 -43.7573 -87.7629 61.7390 0.0000 0.0000 0.0000 -32.3776 -4.4296 2.4539 12.7287 18.6820 68.2808 -1.5243 -22.5502 0.2924 11.7043 -18.2628 -65.0484 0.0000 0.0000 0.0000 10.9883 40.2768 -85.2561 -20.4672 -19.9948 91.3661 -1.6380 9.8755 -22.9782 -0.1566 2.5496 -7.0271 0.6378 0.2178 20.8802 4.6848 1.2701 -7.6520 4.5336 0.8482 -20.6906 -4.2385 1.7915 -17.0092 -17.6267 7.4154 23.0057 -4.7118 0.5535 11.0175 0.0000 -0.0000 0.0000 -59.6043 -2.8380 -25.8632 14.7225 -23.7581 -3.1133 -0.0000 0.0000 -19.7457 17.0225 39.3716 10.9907 -7.1250 0.0000 -0.0000 -26.3066 68.9389 -15.4827 0.0000 -0.0000 0.0000 37.9415 -6.9222 33.7156 -15.2869 24.5442 -3.3442 0.0000 -0.0000 -51.3524 -7.4429 -30.9727 3.8462 7.1250 -0.0000 -0.0000 27.2574 -59.0282 -9.7977
-1.6715 10.7102 -0.4033 -34.8694 -87.7618 52.6980 0.0000 0.0000 0.0000 -32.6052 -4.1884 2.5186 13.0097 18.7857 69.1558 -1.5553 -22.7706 0.2804 11.7221 -18.2707 -65.1053 0.0000 0.0000 0.0000 10.6581 40.0924 -85.9870 -20.9393 -19.9788 92.7474 -1.7659 9.1785 -23.8259 -0.4922 4.4982 -12.4828 0.4768 0.2558 21.0929 4.5899 1.2689 -7.6523 4.5183 0.8643 -20.8200 -4.3569 1.7434 -16.9765 -17.8465 7.4572 23.2765 -4.7879 0.5063 11.1308 -0.0000 -0.0000 0.0000 -57.8200 -1.2396 -27.5639 14.9687 -24.1025 -3.2132 -0.0000 0.0000 -20.7236 21.0706 40.1029 13.9382 -7.1250 0.0000 -0.0000 -22.5714 70.8884 -14.1656 -0.0000 -0.0000 0.0000 36.9015 -9.4599 29.7715 -14.5917 23.5742 -3.0608 0.0000 -0.0000 -50.0614 -10.0358 -32.1826 5.3847 7.1250 -0.0000 -0.0000 25.6677 -60.6979 -10.2096
-1.7092 10.6246 -0.3869 -28.4764 -87.6593 46.1175 0.0000 0.0000 0.0000 -32.6129 -3.8814 2.6872 13.1875 18.8488 69.7067 -1.6101 -22.9904 0.7393 11.7306 -18.2744 -65.1323 0.0000 0.0000 0.0000 10.5998 39.9796 -86.3872 -21.3387 -19.9570 93.9167 -1.8816 8.7153 -24.5983 -0.7126 5.3948 -15.0382 0.4067 0.2528 21.2371 4.5009 1.2356 -7.6623 4.4699 0.8543 -20.9151 -4.2963 1.7432 -16.9840 -18.1184 7.5511 23.6247 -4.9135 0.4842 11.2946 0.0000 -0.0000 0.0000 -55.9791 0.3314 -28.8972 15.1647 -24.3751 -3.2936 -0.0000 0.0000 -21.7483 25.8409 40.8801 17.5867 -7.1250 0.0000 -0.0000 -17.5550 73.2247 -11.8379 0.0000 -0.0000 0.0000 35.7561 -11.8504 26.2316 -14.0659 22.8288 -2.8536 0.0000 -0.0000 -49.3207 -12.1199 -33.0491 6.6796 7.1250 -0.0000 -0.0000 24.2790 -61.9814 -10.3593
-1.7469 10.5475 -0.3751 -25.5230 -87.4953 42.8938 0.0000 0.0000 0.0000 -32.3884 -3.6044 2.9737 13.2474 18.8697 69.8922 -1.6981 -23.3340 1.5222 11.7958 -18.3030 -65.3400 0.0000 0.0000 0.0000 10.8943 39.9575 -86.4550 -21.6958 -19.9309 94.9637 -1.9575 9.0436 -25.1010 -0.5159 4.6035 -12.7811 0.1724 0.2005 21.4334 4.5605 1.1109 -7.6730 4.7250 0.8425 -21.0484 -4.2060 1.8375 -16.9033 -18.4456 7.7555 23.8790 -5.0448 0.5171 11.4207 -0.0000 0.0000 0.0000 -54.3042 1.5142 -31.6397 15.0609 -24.2308 -3.2509 -0.0000 0.0000 -20.8487 31.6458 41.4820 22.2068 -7.1250 0.0000 -0.0000 -9.6242 75.8957 -7.0023 -0.0000 0.0000 0.0000 34.2965 -13.9626 23.4116 -13.5239 22.0500 -2.6467 0.0000 -0.0000 -48.6536 -12.9438 -33.4069 7.2121 7.1250 -0.0000 -0.0000 23.7389 -62.5112 -10.4114
-1.7785 10.4805 -0.3666 -23.1510 -87.3744 40.2056 0.0000 0.0000 0.0000 -32.1091 -3.3381 3.3003 13.2500 18.8706 69.9002 -1.7846 -23.6069 2.5681 11.8803 -18.3396 -65.6089 0.0000 0.0000 0.0000 11.3438 39.9289 -86.4130 -22.0232 -19.9016 95.9248 -2.0705 9.0190 -25.8309 -0.4223 4.1710 -11.5583 -0.1711 0.1168 21.6455 4.6098 0.9067 -7.6492 5.0613 0.8115 -21.1389 -5.5811 1.6699 -15.5654 -17.3525 7.2761 22.9296 -4.3878 0.4565 10.6429 -0.0000 -0.0000 0.0000 -52.6954 2.8716 -33.5506 15.0436 -24.2068 -3.2438 -0.0000 0.0000 -19.6409 40.3310 42.1372 29.6657 -7.1250 0.0000 -0.0000 8.1611 79.7702 6.5880 -0.0000 -0.0000 0.0000 32.9486 -15.7008 20.4687 -12.8197 21.0224 -2.3882 0.0000 -0.0000 -46.8086 -13.2298 -33.3091 7.3565 7.1250 -0.0000 -0.0000 23.3387 -62.4959 -10.2170
-1.8091 10.4285 -0.3562 -17.2958 -87.3643 34.0652 0.0000 0.0000 0.0000 -31.9861 -3.0152 3.5493 13.2604 18.8742 69.9322 -1.9080 -24.1094 3.7134 11.9657 -18.3761 -65.8801 0.0000 0.0000 0.0000 11.5690 39.8306 -86.4357 -22.3326 -19.8690 96.8344 -2.1855 8.2335 -26.5720 -0.4392 4.2526 -11.7885 -0.5422 0.0726 21.7519 4.4645 0.7105 -7.5753 5.1787 0.7666 -21.0866 -4.3460 2.0085 -16.5664 -18.6367 8.0454 24.0457 -5.0634 0.6006 11.4548 0.0000 -0.0000 0.0000 -50.8914 4.0638 -34.5349 14.9844 -24.1244 -3.2196 -0.0000 0.0000 -17.5636 50.0178 42.9347 39.0867 -7.1250 0.0000 -0.0000 48.7157 83.1333 43.3356 0.0000 -0.0000 0.0000 31.7857 -17.3438 17.9284 -12.0975 19.9507 -2.1354 0.0000 -0.0000 -44.7359 -14.4571 -32.7548 7.9410 7.1250 -0.0000 -0.0000 21.5017 -62.3027 -9.2731
-1.8434 10.3869 -0.3462 -9.6436 -87.3229 26.0692 0.0000 0.0000 0.0000 -31.9573 -2.7271 3.8725 13.2581 18.8734 69.9253 -2.0290 -24.6090 4.8718 12.0461 -18.4100 -66.1347 0.0000 0.0000 0.0000 11.7153 39.7662 -86.3085 -22.5936 -19.8379 97.6030 -2.2320 7.5759 -26.8932 -0.3675 3.8939 -10.7784 -0.8529 0.0633 21.8747 4.1455 0.5509 -7.4886 5.0442 0.7123 -21.0205 -3.9184 2.0641 -16.8592 -18.9844 8.2160 24.5597 -5.2896 0.6128 11.7701 -0.0000 0.0000 0.0000 -48.7086 4.6192 -36.6121 14.6097 -23.5996 -3.0680 -0.0000 0.0000 -13.4635 56.4375 43.6472 46.1326 -7.1250 0.0000 -0.0000 90.7248 82.8381 83.5125 -0.0000 0.0000 0.0000 30.7851 -19.2343 16.2028 -11.4705 19.0058 -1.9264 0.0000 -0.0000 -42.9897 -17.2316 -32.3253 9.4167 7.1250 -0.0000 -0.0000 18.0821 -62.6101 -7.8722
-1.8804 10.3539 -0.3416 -4.3421 -87.2489 20.4562 0.0000 0.0000 0.0000 -31.8889 -2.5229 4.2972 13.1833 18.8473 69.6938 -2.0871 -24.7813 5.9501 12.1074 -18.4357 -66.3289 0.0000 0.0000 0.0000 11.9177 39.8451 -86.1674 -22.8088 -19.8098 98.2376 -2.2713 6.9115 -27.1843 -0.3371 3.7310 -10.3210 -1.0885 0.0740 21.9550 3.7782 0.4314 -7.4339 4.7966 0.6604 -20.9726 -4.3974 1.9038 -16.6697 -18.3824 7.9761 24.7298 -5.0110 0.5325 11.7168 -0.0000 -0.0000 0.0000 -46.3753 4.9221 -39.4229 14.2687 -23.1175 -2.9328 -0.0000 0.0000 -9.4870 61.4269 43.4649 51.6319 -7.1250 0.0000 -0.0000 103.4045 -80.8902 -112.5370 -0.0000 -0.0000 0.0000 29.8411 -21.2276 14.9914 -10.9606 18.2279 -1.7636 0.0000 -0.0000 -41.1443 -22.2129 -32.9208 12.5130 7.1250 -0.0000 -0.0000 12.8598 -64.5080 -6.1216
